<?xml version="1.0" encoding="UTF-8"?>
<!-- Generated by Pixelmator Pro 2.4.1 -->
<svg width="280" height="93" viewBox="0 0 280 93" xmlns="http://www.w3.org/2000/svg" xmlns:xlink="http://www.w3.org/1999/xlink">
    <path id="Path" fill="#ffffff" stroke="none" d="M 24.5 93.25 C 19.875 93.25 15.7083 92.104004 12 89.811996 C 8.25 87.520996 5.22917 84.438004 2.9375 80.561996 C 0.6875 76.688004 -0.4375 72.354004 -0.4375 67.561996 L -0.4375 27 C -0.4375 22.333298 0.70833 18.083298 3 14.25 C 5.25 10.375 8.2708 7.291702 12.0625 5 C 15.8542 2.666702 20 1.5 24.5 1.5 C 29.208302 1.5 33.458302 2.625 37.25 4.875 C 41.041698 7.166702 44.041698 10.229202 46.25 14.0625 C 48.5 17.895798 49.625 22.208298 49.625 27 L 49.625 32.875 C 49.625 33.208298 49.416698 33.375 49 33.375 L 34.625 33.375 C 34.291698 33.375 34.125 33.208298 34.125 32.875 L 34.125 28 C 34.125 24.75 33.208302 22.0625 31.375 19.9375 C 29.541698 17.8125 27.25 16.75 24.5 16.75 C 22.0417 16.75 19.8542 17.770798 17.9375 19.8125 C 16.0208 21.854202 15.0625 24.25 15.0625 27 L 15.0625 67.561996 C 15.0625 70.354004 16 72.770996 17.875 74.811996 C 19.75 76.811996 21.9583 77.811996 24.5 77.811996 C 27.25 77.811996 29.541698 76.832993 31.375 74.875 C 33.208302 72.875 34.125 70.438004 34.125 67.561996 L 34.125 61.25 L 25.1875 61.25 C 24.7292 61.25 24.5 61.042 24.5 60.625 L 24.5 46.311996 C 24.5 45.896004 24.7292 45.688004 25.1875 45.688004 L 49.125 45.688004 C 49.458302 45.688004 49.625 45.896004 49.625 46.311996 L 49.625 67.561996 C 49.625 72.354004 48.5 76.688004 46.25 80.561996 C 43.958302 84.438004 40.9375 87.520996 37.1875 89.811996 C 33.4375 92.104004 29.208302 93.25 24.5 93.25 Z"/>
    <path id="path1" fill="#ffffff" stroke="none" d="M 134.625 93.25 C 130.125 93.25 125.957993 92.082993 122.125 89.75 C 118.292 87.417007 115.228996 84.292007 112.938004 80.375 C 110.688004 76.417007 109.561996 72.104004 109.561996 67.438004 L 109.811996 3.4375 C 109.811996 3.104202 109.978996 2.9375 110.311996 2.9375 L 124.688004 2.9375 C 125.020996 2.9375 125.188004 3.104202 125.188004 3.4375 L 125.188004 67.438004 C 125.188004 70.311996 126.104004 72.770996 127.938004 74.811996 C 129.770996 76.811996 132 77.811996 134.625 77.811996 C 137.375 77.811996 139.667007 76.811996 141.5 74.811996 C 143.332993 72.770996 144.25 70.311996 144.25 67.438004 L 144.25 3.4375 C 144.25 3.104202 144.417007 2.9375 144.75 2.9375 L 159.125 2.9375 C 159.457993 2.9375 159.625 3.104202 159.625 3.4375 L 159.875 67.438004 C 159.875 72.145996 158.75 76.479004 156.5 80.438004 C 154.207993 84.354004 151.167007 87.479004 147.375 89.811996 C 143.582993 92.104004 139.332993 93.25 134.625 93.25 Z M 191.688004 93.25 C 187.145996 93.25 182.957993 92.082993 179.125 89.75 C 175.332993 87.417007 172.292007 84.311996 170 80.438004 C 167.75 76.520996 166.625 72.229004 166.625 67.561996 L 166.625 61.688004 C 166.625 61.228996 166.832993 61 167.25 61 L 181.625 61 C 181.957993 61 182.125 61.228996 182.125 61.688004 L 182.125 67.561996 C 182.125 70.354004 183.061996 72.770996 184.938004 74.811996 C 186.811996 76.811996 189.061996 77.811996 191.688004 77.811996 C 194.354004 77.811996 196.625 76.792007 198.5 74.75 C 200.375 72.667007 201.311996 70.270996 201.311996 67.561996 C 201.311996 64.438004 199.270996 61.708 195.188004 59.375 C 194.520996 58.958 193.645996 58.458 192.561996 57.875 C 191.520996 57.25 190.270996 56.542 188.811996 55.75 C 187.354004 54.958 185.938004 54.188004 184.561996 53.438004 C 183.188004 52.646004 181.854004 51.896004 180.561996 51.188004 C 175.895996 48.438004 172.417007 45 170.125 40.875 C 167.875 36.708 166.75 32.041702 166.75 26.875 C 166.75 22.125 167.917007 17.833298 170.25 14 C 172.582993 10.208298 175.625 7.208298 179.375 5 C 183.167007 2.75 187.270996 1.625 191.688004 1.625 C 196.229004 1.625 200.395996 2.75 204.188004 5 C 207.979004 7.291702 211 10.333298 213.25 14.125 C 215.542007 17.916702 216.688004 22.166702 216.688004 26.875 L 216.688004 37.375 C 216.688004 37.708 216.520996 37.875 216.188004 37.875 L 201.811996 37.875 C 201.479004 37.875 201.311996 37.708 201.311996 37.375 L 201.188004 26.875 C 201.188004 23.875 200.25 21.4375 198.375 19.5625 C 196.5 17.6875 194.270996 16.75 191.688004 16.75 C 189.061996 16.75 186.811996 17.75 184.938004 19.75 C 183.061996 21.75 182.125 24.125 182.125 26.875 C 182.125 29.666702 182.707993 32 183.875 33.875 C 185.082993 35.75 187.270996 37.542 190.438004 39.25 C 190.770996 39.417 191.542007 39.833 192.75 40.5 C 193.957993 41.167 195.292007 41.917 196.75 42.75 C 198.25 43.542 199.604004 44.271004 200.811996 44.938004 C 202.020996 45.561996 202.75 45.938004 203 46.061996 C 207.25 48.438004 210.604004 51.353996 213.061996 54.811996 C 215.561996 58.271004 216.811996 62.521004 216.811996 67.561996 C 216.811996 72.438004 215.688004 76.811996 213.438004 80.688004 C 211.145996 84.561996 208.104004 87.625 204.311996 89.875 C 200.520996 92.125 196.311996 93.25 191.688004 93.25 Z M 247.438004 93.25 C 242.895996 93.25 238.707993 92.082993 234.875 89.75 C 231.082993 87.417007 228.042007 84.311996 225.75 80.438004 C 223.5 76.520996 222.375 72.229004 222.375 67.561996 L 222.375 61.688004 C 222.375 61.228996 222.582993 61 223 61 L 237.375 61 C 237.707993 61 237.875 61.228996 237.875 61.688004 L 237.875 67.561996 C 237.875 70.354004 238.811996 72.770996 240.688004 74.811996 C 242.561996 76.811996 244.811996 77.811996 247.438004 77.811996 C 250.104004 77.811996 252.375 76.792007 254.25 74.75 C 256.125 72.667007 257.062012 70.270996 257.062012 67.561996 C 257.062012 64.438004 255.020996 61.708 250.938004 59.375 C 250.270996 58.958 249.395996 58.458 248.311996 57.875 C 247.270996 57.25 246.020996 56.542 244.561996 55.75 C 243.104004 54.958 241.688004 54.188004 240.311996 53.438004 C 238.938004 52.646004 237.604004 51.896004 236.311996 51.188004 C 231.645996 48.438004 228.167007 45 225.875 40.875 C 223.625 36.708 222.5 32.041702 222.5 26.875 C 222.5 22.125 223.667007 17.833298 226 14 C 228.332993 10.208298 231.375 7.208298 235.125 5 C 238.917007 2.75 243.020996 1.625 247.438004 1.625 C 251.979004 1.625 256.145996 2.75 259.937988 5 C 263.729004 7.291702 266.75 10.333298 269 14.125 C 271.291992 17.916702 272.437988 22.166702 272.437988 26.875 L 272.437988 37.375 C 272.437988 37.708 272.270996 37.875 271.937988 37.875 L 257.562012 37.875 C 257.229004 37.875 257.062012 37.708 257.062012 37.375 L 256.937988 26.875 C 256.937988 23.875 256 21.4375 254.125 19.5625 C 252.25 17.6875 250.020996 16.75 247.438004 16.75 C 244.811996 16.75 242.561996 17.75 240.688004 19.75 C 238.811996 21.75 237.875 24.125 237.875 26.875 C 237.875 29.666702 238.457993 32 239.625 33.875 C 240.832993 35.75 243.020996 37.542 246.188004 39.25 C 246.520996 39.417 247.292007 39.833 248.5 40.5 C 249.707993 41.167 251.042007 41.917 252.5 42.75 C 254 43.542 255.354004 44.271004 256.562012 44.938004 C 257.770996 45.561996 258.5 45.938004 258.75 46.061996 C 263 48.438004 266.354004 51.353996 268.812012 54.811996 C 271.312012 58.271004 272.562012 62.521004 272.562012 67.561996 C 272.562012 72.438004 271.437988 76.811996 269.187988 80.688004 C 266.895996 84.561996 263.854004 87.625 260.062012 89.875 C 256.270996 92.125 252.062012 93.25 247.438004 93.25 Z"/>
    <path id="path2" fill="#ffffff" stroke="none" d="M 79.375 -0.25 C 83.875 -0.25 88.041702 0.916702 91.875 3.25 C 95.708298 5.583298 98.771004 8.708298 101.063004 12.625 C 103.313004 16.583298 104.438004 20.895798 104.438004 25.5625 L 104.188004 89.561996 C 104.188004 89.895996 104.021004 90.061996 103.688004 90.061996 L 89.3125 90.061996 C 88.979202 90.061996 88.8125 89.895996 88.8125 89.561996 L 88.8125 25.5625 C 88.8125 22.6875 87.895798 20.229202 86.0625 18.1875 C 84.229202 16.1875 82 15.1875 79.375 15.1875 C 76.625 15.1875 74.333298 16.1875 72.5 18.1875 C 70.666702 20.229202 69.75 22.6875 69.75 25.5625 L 69.75 89.561996 C 69.75 89.895996 69.583298 90.061996 69.25 90.061996 L 54.875 90.061996 C 54.541698 90.061996 54.375 89.895996 54.375 89.561996 L 54.125 25.5625 C 54.125 20.854202 55.25 16.520798 57.5 12.5625 C 59.791698 8.645798 62.833298 5.520798 66.625 3.1875 C 70.416702 0.895798 74.666702 -0.25 79.375 -0.25 Z"/>
    <path id="path3" fill="none" stroke="#ffffff" stroke-width="15" stroke-linecap="round" stroke-linejoin="round" d="M 65 51.5 L 92.135902 51.5"/>
</svg>
